<?xml version="1.0" ?><svg viewBox="0 0 512 512" xmlns="http://www.w3.org/2000/svg"><g id="Clown"><path d="M334.0127,337.3647a8,8,0,0,0-10.0083,5.2754,71.2228,71.2228,0,0,1-136.0078,0,8,8,0,1,0-15.2837,4.7334,87.2234,87.2234,0,0,0,166.5752-.0005A8.0005,8.0005,0,0,0,334.0127,337.3647Z"/><circle cx="256" cy="316.1688" r="41.4445"/><path d="M423.5927,293.6556a37.9782,37.9782,0,0,0,3.0333-14.9071,38.5278,38.5278,0,0,0-26.9248-36.5307,49.17,49.17,0,0,0-78.4854-48.471L263.29,65.5967a8,8,0,0,0-14.58,0l-57.9258,128.15a49.1974,49.1974,0,0,0-78.4854,48.471A38.5278,38.5278,0,0,0,85.374,278.7485a37.9782,37.9782,0,0,0,3.0333,14.9071,41.0889,41.0889,0,0,0-9.4932,26.3058v11.9365a41.3255,41.3255,0,0,0,41.2788,41.2789h13.47a134.9887,134.9887,0,0,0,244.6748,0h13.47a41.3255,41.3255,0,0,0,41.2788-41.2789V319.9614A41.0889,41.0889,0,0,0,423.5927,293.6556Zm-196.755-97.6224,62.6971-33.5292L304.69,196.0332Zm-1.2587-40.4178,48.9978-26.2031,8.3531,18.48L211.9,185.8772ZM256,88.3145,267.9719,114.8,236.395,131.687ZM417.0859,331.8979a25.3072,25.3072,0,0,1-25.2788,25.2789h-7.26a134.3883,134.3883,0,0,0,6.3927-41.0079,8,8,0,0,0-16,0,118.3408,118.3408,0,0,1-25.0111,72.88h.1215a119.051,119.051,0,0,1-188.1006,0h.1215A118.3408,118.3408,0,0,1,137.06,316.1689a8,8,0,0,0-16,0,134.3883,134.3883,0,0,0,6.3927,41.0079h-7.26a25.3072,25.3072,0,0,1-25.2788-25.2789V319.9614a25.3072,25.3072,0,0,1,25.2788-25.2788H132.51a8,8,0,0,0,7.7827-6.1484,119.5676,119.5676,0,0,1,58.1552-76.501H313.5518a119.5676,119.5676,0,0,1,58.1552,76.501,8,8,0,0,0,7.7827,6.1484h12.3174a25.3072,25.3072,0,0,1,25.2788,25.2788Z"/><circle cx="310.9261" cy="269.1954" r="12.3916" transform="translate(-39.1055 53.2809) rotate(-9.2175)"/><circle cx="201.0739" cy="269.1954" r="12.3917" transform="translate(-124.5779 351.947) rotate(-67.5)"/></g></svg>